<svg xmlns="http://www.w3.org/2000/svg" version="1.1" xmlns:xlink="http://www.w3.org/1999/xlink" xmlns:svgjs="http://svgjs.dev/svgjs" width="1000" height="547" viewBox="0 0 1000 547"><g transform="matrix(1,0,0,1,-0.6060582639222503,-0.5779383410674654)"><svg viewBox="0 0 396 217" data-background-color="#ffffff" preserveAspectRatio="xMidYMid meet" height="547" width="1000" xmlns="http://www.w3.org/2000/svg" xmlns:xlink="http://www.w3.org/1999/xlink"><g id="tight-bounds" transform="matrix(1,0,0,1,0.23999921743302366,0.2292735283576519)"><svg viewBox="0 0 395.52 216.54145062474583" height="216.54145062474583" width="395.52"><g><svg viewBox="0 0 395.52 216.54145062474583" height="216.54145062474583" width="395.52"><g transform="matrix(1,0,0,1,0,160.09286053638624)"><svg viewBox="0 0 395.52 56.448590088359595" height="56.448590088359595" width="395.52"><g id="textblocktransform"><svg viewBox="0 0 395.52 56.448590088359595" height="56.448590088359595" width="395.52" id="textblock"><g><svg viewBox="0 0 395.52 56.448590088359595" height="56.448590088359595" width="395.52"><g transform="matrix(1,0,0,1,0,0)"><svg width="395.52" viewBox="2.1500000953674316 -36.79999923706055 260.2799987792969 37.14999771118164" height="56.448590088359595" data-palette-color="#636365"><path d="M2.15-17.45Q2.15-22.55 4.45-26.63 6.75-30.7 10.73-33 14.7-35.3 19.55-35.3L19.55-35.3Q25.25-35.3 29.5-32.55 33.75-29.8 35.7-24.75L35.7-24.75 30.25-24.75Q28.8-27.9 26.08-29.6 23.35-31.3 19.55-31.3L19.55-31.3Q15.9-31.3 13-29.6 10.1-27.9 8.45-24.78 6.8-21.65 6.8-17.45L6.8-17.45Q6.8-13.3 8.45-10.18 10.1-7.05 13-5.35 15.9-3.65 19.55-3.65L19.55-3.65Q23.35-3.65 26.08-5.33 28.8-7 30.25-10.15L30.25-10.15 35.7-10.15Q33.75-5.15 29.5-2.43 25.25 0.3 19.55 0.3L19.55 0.3Q14.7 0.3 10.73-1.98 6.75-4.25 4.45-8.3 2.15-12.35 2.15-17.45L2.15-17.45ZM47-34.85L47-3.7 59.2-3.7 59.2 0 42.45 0 42.45-34.85 47-34.85ZM64.05-34.85L68.6-34.85 68.6 0 64.05 0 64.05-34.85ZM74.64-17.45Q74.64-22.55 76.94-26.63 79.24-30.7 83.22-33 87.19-35.3 92.04-35.3L92.04-35.3Q97.74-35.3 101.99-32.55 106.24-29.8 108.19-24.75L108.19-24.75 102.74-24.75Q101.29-27.9 98.57-29.6 95.84-31.3 92.04-31.3L92.04-31.3Q88.39-31.3 85.49-29.6 82.59-27.9 80.94-24.78 79.29-21.65 79.29-17.45L79.29-17.45Q79.29-13.3 80.94-10.18 82.59-7.05 85.49-5.35 88.39-3.65 92.04-3.65L92.04-3.65Q95.84-3.65 98.57-5.33 101.29-7 102.74-10.15L102.74-10.15 108.19-10.15Q106.24-5.15 101.99-2.43 97.74 0.3 92.04 0.3L92.04 0.3Q87.19 0.3 83.22-1.98 79.24-4.25 76.94-8.3 74.64-12.35 74.64-17.45L74.64-17.45ZM139.79 0L133.84 0 119.49-15.9 119.49 0 114.94 0 114.94-34.85 119.49-34.85 119.49-18.7 133.89-34.85 139.64-34.85 123.84-17.4 139.79 0ZM143.59-3.65Q149.94-8.75 153.54-12.03 157.14-15.3 159.61-18.88 162.09-22.45 162.09-25.9L162.09-25.9Q162.09-29.15 160.51-31.03 158.94-32.9 155.44-32.9L155.44-32.9Q152.04-32.9 150.16-30.78 148.29-28.65 148.14-25.1L148.14-25.1 143.74-25.1Q143.94-30.7 147.14-33.75 150.34-36.8 155.39-36.8L155.39-36.8Q160.54-36.8 163.56-33.95 166.59-31.1 166.59-26.1L166.59-26.1Q166.59-21.95 164.11-18.03 161.64-14.1 158.49-11.13 155.34-8.15 150.44-4.2L150.44-4.2 167.64-4.2 167.64-0.4 143.59-0.4 143.59-3.65ZM191.09-17.95Q192.99-17.65 194.56-16.4 196.14-15.15 197.06-13.3 197.99-11.45 197.99-9.35L197.99-9.35Q197.99-6.7 196.64-4.58 195.29-2.45 192.71-1.23 190.14 0 186.64 0L186.64 0 173.64 0 173.64-34.85 186.14-34.85Q189.69-34.85 192.19-33.68 194.69-32.5 195.94-30.5 197.19-28.5 197.19-26L197.19-26Q197.19-22.9 195.51-20.88 193.84-18.85 191.09-17.95L191.09-17.95ZM178.19-31.1L178.19-19.8 185.84-19.8Q189.04-19.8 190.79-21.3 192.54-22.8 192.54-25.45L192.54-25.45Q192.54-28.1 190.79-29.6 189.04-31.1 185.74-31.1L185.74-31.1 178.19-31.1ZM186.24-3.75Q189.64-3.75 191.54-5.35 193.44-6.95 193.44-9.8L193.44-9.8Q193.44-12.7 191.44-14.38 189.44-16.05 186.09-16.05L186.09-16.05 178.19-16.05 178.19-3.75 186.24-3.75ZM204.18-34.85L208.73-34.85 208.73-12.8Q208.73-8.15 211.01-5.9 213.28-3.65 217.33-3.65L217.33-3.65Q221.33-3.65 223.61-5.9 225.88-8.15 225.88-12.8L225.88-12.8 225.88-34.85 230.43-34.85 230.43-12.85Q230.43-8.5 228.68-5.53 226.93-2.55 223.96-1.1 220.98 0.35 217.28 0.35L217.28 0.35Q213.58 0.35 210.61-1.1 207.63-2.55 205.91-5.53 204.18-8.5 204.18-12.85L204.18-12.85 204.18-34.85ZM257.38-34.85L262.43-34.85 251.08-13.15 251.08 0 246.53 0 246.53-13.15 235.13-34.85 240.18-34.85 248.78-17.2 257.38-34.85Z" opacity="1" transform="matrix(1,0,0,1,0,0)" fill="#636365" class="wordmark-text-0" data-fill-palette-color="primary" id="text-0"></path></svg></g></svg></g></svg></g></svg></g><g transform="matrix(1,0,0,1,131.03972708550646,0)"><svg viewBox="0 0 133.44054582898707 133.44054582898707" height="133.44054582898707" width="133.44054582898707"><g><svg></svg></g><g id="icon-0"><svg viewBox="0 0 133.44054582898707 133.44054582898707" height="133.44054582898707" width="133.44054582898707"><g><path d="M0 66.72c0-36.849 29.872-66.72 66.72-66.72 36.849 0 66.72 29.872 66.721 66.72 0 36.849-29.872 66.72-66.721 66.721-36.849 0-66.72-29.872-66.72-66.721zM66.72 128.35c34.037 0 61.63-27.593 61.63-61.63 0-34.037-27.593-61.63-61.63-61.629-34.037 0-61.63 27.593-61.629 61.629 0 34.037 27.593 61.63 61.629 61.63z" data-fill-palette-color="accent" fill="#58636e" stroke="transparent"></path><ellipse rx="66.0530701853486" ry="66.0530701853486" cx="66.72027291449353" cy="66.72027291449353" fill="#58636e" stroke="transparent" stroke-width="0" fill-opacity="1" data-fill-palette-color="accent"></ellipse></g><g transform="matrix(1,0,0,1,44.6549182132424,31.783461304179234)"><svg viewBox="0 0 44.130709402502276 69.8736232206286" height="69.8736232206286" width="44.130709402502276"><g><svg xmlns="http://www.w3.org/2000/svg" xmlns:xlink="http://www.w3.org/1999/xlink" version="1.1" x="0" y="0" viewBox="27 13.000001907348633 48 76" enable-background="new 0 0 100 100" xml:space="preserve" height="69.8736232206286" width="44.130709402502276" class="icon-s-0" data-fill-palette-color="quaternary" id="s-0"><path d="M68 49c-1.34 0-2.59 0.38-3.66 1.03C63.22 47.65 60.8 46 58 46c-1.34 0-2.59 0.38-3.66 1.03C53.22 44.65 50.8 43 48 43c-1.07 0-2.09 0.24-3 0.68V32.49c2.44-2.02 4-5.07 4-8.49 0-6.08-4.92-11-11-11s-11 4.92-11 11c0 3.42 1.56 6.47 4 8.49V67c0 12.13 9.87 22 22 22s22-9.87 22-22V56C75 52.14 71.86 49 68 49zM71 67c0 9.92-8.08 18-18 18-9.93 0-18-8.08-18-18V26c0-1.65 1.35-3 3-3s3 1.35 3 3v24c0 1.1 0.9 2 2 2s2-0.9 2-2c0-1.65 1.35-3 3-3s3 1.35 3 3v3c0 1.1 0.9 2 2 2s2-0.9 2-2c0-1.65 1.35-3 3-3s3 1.35 3 3v3c0 1.1 0.9 2 2 2s2-0.9 2-2c0-1.65 1.35-3 3-3s3 1.35 3 3V67z" fill="#ffffff" data-fill-palette-color="quaternary"></path></svg></g></svg></g></svg></g></svg></g><g></g></svg></g><defs></defs></svg><rect width="395.52" height="216.54145062474583" fill="none" stroke="none" visibility="hidden"></rect></g></svg></g></svg>